<svg preserveAspectRatio="none" width="100%" height="100%" overflow="visible" style="display: block;" viewBox="0 0 284.234 83.2258" fill="none" xmlns="http://www.w3.org/2000/svg">
<g id="Group">
<path id="Vector" d="M134.842 20.806H147.695V62.4161H138.17V34.4345L125.987 62.4161L113.163 34.3993V62.4161H104.277V20.806H116.98L126.138 42.343L134.842 20.806Z" fill="var(--fill-0, #007A73)"/>
<path id="Vector_2" d="M152.431 20.806V62.4161H176.365V55.3619H161.709V44.7758H175.759V37.655H161.709V28.1085H176.365V20.806H152.431Z" fill="var(--fill-0, #007A73)"/>
<path id="Vector_3" d="M212.061 41.6185C212.061 57.1074 228.176 69.5019 245.155 61.2117V52.2971C232.09 61.4785 220.717 52.276 220.904 41.9742C221.031 35.1275 225.618 28.6162 234.49 28.1085C238.853 27.86 241.808 28.9479 245.155 32.1628V22.8924C232.887 15.5992 212.061 23.6262 212.061 41.6185Z" fill="var(--fill-0, #007A73)"/>
<path id="Vector_4" d="M249.071 62.4162H257.894V21.2063H249.071V62.4162Z" fill="var(--fill-0, #007A73)"/>
<path id="Vector_5" d="M268.964 40.1027L282.295 21.297H271.991L258.784 40.0675L274.117 62.4161H284.234L268.964 40.1027Z" fill="var(--fill-0, #007A73)"/>
<path id="Vector_6" d="M180.489 20.8056V62.4158H189.8V40.0608L205.191 62.4158H215.116L202.931 44.9438C208.578 42.8018 210.41 38.0522 210.41 33.3049C210.41 28.5613 206.441 20.8056 196.824 20.8056H180.489ZM189.8 27.7298H193.864C200.735 27.7298 201.102 32.2358 201.102 33.9184C201.102 37.1332 198.383 39.8708 194.873 39.8708H189.8V27.7298Z" fill="var(--fill-0, #007A73)"/>
<path id="Vector_7" d="M20.7401 20.8069C20.7401 9.31479 30.0278 0 41.4821 0C52.9402 0 62.2241 9.31479 62.2241 20.8069H20.7401ZM20.7401 62.4189C20.7401 50.9287 30.0278 41.612 41.4821 41.612C30.0278 41.612 20.7401 32.299 20.7401 20.8069C9.28578 20.8069 0 30.1217 0 41.612C0 53.1059 9.28578 62.4189 20.7401 62.4189ZM20.7401 62.4189C20.7401 73.9128 30.0278 83.2258 41.4821 83.2258C52.9402 83.2258 62.2241 73.9128 62.2241 62.4189H20.7401ZM41.4821 41.612C52.9402 41.612 62.2241 50.9287 62.2241 62.4189C73.6803 62.4189 82.9679 53.1059 82.9679 41.612C82.9679 30.1217 73.6803 20.8069 62.2241 20.8069C62.2241 32.299 52.9402 41.612 41.4821 41.612Z" fill="var(--fill-0, #007A73)"/>
</g>
</svg>
